# xmcd
#
# Track frame offsets: 
#        183
#        30180
#        49650
#
# Disc length: 967 seconds
#
# Revision: 2
# Processed by: cddbd v1.5.2PL0 Copyright (c) Steve Scherf et al.
# Submitted via: ExactAudioCopyFreeDBPlugin 1.0
#
DISCID=1603c503
DTITLE=The Boys - Dial My Heart [CDS)
DYEAR=1988
DGENRE=Funk
TTITLE0=Dial My Heart (12" Heart Version)
TTITLE1=Dial My Heart (7" Edit)
TTITLE2=Dial My Heart (Morning Madness Thank You Mix)
EXTD=
EXTT0=
EXTT1=
EXTT2=
PLAYORDER=
